<svg xmlns="http://www.w3.org/2000/svg" xml:space="preserve" viewBox="0 0 150 150"><path fill="#313c50" d="M149 151H1.073V1c48.948 0 97.969 0 147.458.469.468 19.757.443 39.047.511 58.335.006 1.73.613 3.458.946 5.632.002 2.82-.002 5.196-.263 7.78-.412 1.067-.567 1.926-.723 3.253zm-56.703-38.04c.21.05.42.098 1.18.696l4.154.834.795 5.253h26.182V94.04c-6.253 1.066-7.217-2.314-5.678-7.066 1.808.012 3.615.034 5.423.036 6.645.004 6.645.002 6.9-7.224 0 0 .387.115 1.187.207 5.387 1.562 5.745 1.153 6.26-6.138 6.203-.02 6.802-.69 5.525-6.883-1.982 0-4.095 0-6.258-.875l-.3-5.082c-7.201 0-13.939 0-20.57-.792l1.566-6.061c2.607-.398 5.945-1.53 6.024-2.858.49-8.197.246-16.438.246-24.293h-26.45l-.934 5.458c-2.358.536-4.427 1.006-6.544.827-.043-.433-.086-.865-.041-2.219V20.02c-2.43 0-4.202 0-5.955-.871l-.303-5.13c-2.483 0-4.57 0-6.907-.292 0 0 .116-.367.157-1.282l-.225-5.067h-6.735c0 2.132 0 3.903.005 6.172 0 0-.042.496-.699.46-.435.046-.87.092-2.102.041-1.063.505-2.913.847-3.057 1.541-.774 3.751-3.165 4.999-7.144 4.7 0 4.805 0 9.256-.866 13.712l-4.603-.274c-1.256-2.81.587-6.968-4.403-6.863-6.626.14-13.26-.058-19.884.136-1.097.032-3.074 1.303-3.094 2.044-.223 8.202-.14 16.412-.14 24.62l1.528-.832c1.522 1.387 3.044 2.774 4.492 4.91-.01.753-.018 1.506-.57 2.316-.177.045-.354.09-1.442.054h-10.98c0 2.392 0 4.139-.465 6.07-.29.189-.494.446-1.478.814l-4.525.278c-.275.77-.466 1.068-.476 1.372-.06 1.8-.079 3.6-.109 5.335l-.826.02h-5.59c-1.024 7.064-.642 7.37 6.396 6.47.021.21.043.42.053 1.468 0 2.342-.358 5.115 3.155 5.015 5.948-.17 11.888-.624 17.536-.236-.621 3.915-1.026 8-6.75 7.741 0 7.855-.072 15.289.09 22.717.021.953 1.246 2.677 1.946 2.695 7.877.193 15.76.122 23.59.122.34-2.33.571-3.926.874-6.012 1.978 0 3.765 0 5.932.748l1.152 12.102c1.865 0 3.632 0 5.909.122.172.018.345.036.53.931v5.977c2.15 0 3.586 0 5.592.551.147.962.004 2.125.501 2.844.952 1.374 2.269 2.496 3.434 3.722 1.161-1.226 2.577-2.307 3.388-3.732.485-.851.023-2.242.848-3.391 3.648.404 7.019.459 6.335-5.598 6.49-1.482 6.41-6.365 5.958-11.464-.1-1.138-.068-2.287.147-3.835 0 0 .468-.055 1.113 0"/><path fill="#385567" d="M149.981 73.008c.005-2.376.01-4.751.014-8.04L150 1c.333 1.333.957 2.666.958 4 .05 48.667.042 97.333-.458 145.531-.51-25.156-.52-49.843-.52-74.905.008-1.122.005-1.87.001-2.618"/><path fill="#223b4f" d="m149.97 76 .03 74.531c0 .469-.5.469-.75.469-.25-24.687-.25-49.375-.006-74.531.242-.469.725-.468.725-.468"/><path fill="#233b4f" d="M149.75 1c.248 21.019.247 42.038.239 63.524-.334-1.262-.94-2.99-.947-4.72C148.974 40.516 149 21.226 149 1.47c0-.469.5-.469.75-.469"/><path fill="#010305" d="m91.054 33.946 6.495-1.477.934-5.458h26.45c0 7.855.244 16.096-.246 24.293-.08 1.328-3.417 2.46-6.024 2.858a360 360 0 0 0-1.625 6.463c-.06.402-.072.415-.495.405-1.698-.01-2.973-.01-3.904-.01-.654 2.266-1.174 4.07-2.09 5.914-1.452.106-2.508.173-3.898.175-.785-.068-1.237-.07-1.67-.436-.004-2.094-.028-3.823-.027-6.01.06-2.895.098-5.335.562-7.72 2.03.053 3.635.053 5.533.053 0-1.952 0-3.415.333-5.031 2.08-.81 3.828-1.469 5.97-2.21.427-1.96.458-3.836.555-5.975.02-.434-.028-.608.001-1.212.077-1.71.077-2.99.077-4.915-2.625.435-4.776.792-7.33 1.122a296 296 0 0 1-6.061-.982c1.957 6.388-1.839 6.348-6.008 6.296-2.444-.093-4.46-.114-6.624-.466-.643-1.858-1.14-3.387-1.455-5.106zm26.956 53.071c-.619 4.71.345 8.09 6.598 7.023v25.703H98.426l-.795-5.253c-1.337-.268-2.745-.551-4.268-1.46.138-2.37.39-4.116.906-5.95.428-.177.592-.263 1.077-.304.753.014 1.184-.02 1.882.049.449.042.63-.017 1.175-.02 1.097.024 1.83-.01 2.901.065.8.038 1.263-.032 1.972-.031.405.136.563.202.72.668.377 2.08.755 3.758 1.567 5.464 2.17-.036 3.907-.099 5.971.072 2.263.539 4.199.845 7.013 1.29-.64-3.072-1.102-5.289-1.41-7.84 3.016-6.325-3.244-5.307-5.415-7.896-.3-4.13-.528-7.853-.481-11.569.454-.025.634-.057 1.153-.053.782-.044 1.225-.124 1.98-.145.73.024 1.149-.01 1.905.06a11.4 11.4 0 0 0 1.745.13c-.003-.006-.013-.003-.013-.003"/><path fill="#010105" d="m31.103 56.996-4.566-4.16-1.528.831c0-8.208-.083-16.418.14-24.62.02-.74 1.997-2.012 3.094-2.044 6.624-.194 13.258.005 19.884-.136 4.99-.105 3.147 4.054 4.403 6.863 1.412.084 3.007.179 5.028.261.424-.013.404-.029.42.367-.36 2.12-.735 3.844-1.514 5.596-1.746.086-3.088.145-4.853.14-2.537-.406-4.652-.746-6.704-1.52.064-1.701.064-2.969.064-4.426-3 0-5.46 0-8.347-.06-2.009-.061-3.59-.061-6.078-.061.66 2.486 1.127 4.25 1.54 6.339-.016.762.025 1.199-.004 2.014.587 1.502 1.244 2.626 1.98 4.101 3.097 2.606 3.786 5.882 2.523 8.977-.44 1.079-3.577 1.057-5.482 1.538m25.907 56.988h-5.552l-.873 6.012c-7.83 0-15.714.071-23.591-.122-.7-.018-1.925-1.742-1.946-2.695-.162-7.428-.09-14.862-.09-22.717 5.724.26 6.129-3.826 6.89-8.093.138-.352.123-.332.498-.327 1.787.405 3.199.805 4.618 1.506.29 1.012.57 1.722.909 2.87.012 2.488-.033 4.54-.364 6.77a752 752 0 0 0-5.83 3.804c-.052 2.132.21 4.042.289 6.306-.192 2.188-.2 4.022-.208 5.857a544 544 0 0 0 6.64-.153c2.112-.396 3.831-.754 5.688-.826.712.307 1.286.327 1.86.348-.112-6.63 4.911-4.32 8.166-4.422 4.56-.142 2.287 3.702 2.91 5.86z"/><path fill="#010105" d="M31.995 86.008c-5.935.325-11.875.78-17.823.949-3.513.1-3.155-2.673-2.69-5.468 4.823-.784 9.18-1.116 13.949-1.467 5.745-1.35 5.316 3.171 6.54 6.015z"/><path fill="#010304" d="M116.985 61.02c6.743-.005 13.48-.005 20.682-.005.114 1.929.207 3.505.318 5.528.019.445.022.45-.398.456-1.825.057-3.229.106-4.915.08-.661-.027-1.04.02-1.892.008-4.408-.107-8.342-.155-12.4-.575a391 391 0 0 1-1.414-5.472z"/><path fill="#010107" d="M57.99 33.988c.009-4.44.009-8.89.009-13.696 3.979.299 6.37-.949 7.144-4.7.144-.694 1.994-1.036 3.451-1.15-.27 2.055-.933 3.719-1.925 5.47-.71.753-1.092 1.42-1.52 2.422-.012.782.02 1.23-.019 2.018-.034.803.004 1.265-.005 1.974-.012.41.022.575-.017 1.14-.39 2.16-.707 3.92-1.408 5.74-2.168.294-3.953.525-5.738.756 0 0 .02.016.028.026"/><path fill="#030407" d="M90.94 113.365c.03 1.144-.004 2.293.097 3.43.451 5.1.532 9.983-6.419 11.836-2.457 1.036-4.454 1.703-6.52 1.993-.132-1.137-.193-1.898-.154-2.899.36-.46.62-.683 1.323-.824 1.718.081 2.992.081 4.815.081 0-2.456 0-4.743.1-7.401.323-2.106.547-3.84.91-5.699.14-.123.065-.487.477-.472 2.066-.005 3.719-.025 5.372-.045"/><path fill="#010209" d="M63.942 126.834h-5.4c-.413-4.345-.783-8.223-1.342-12.476-.19-.374-.183-.389.09-.496.776-.37 1.28-.634 2.187-.88 1.743.057 3.084.097 4.612.483.461 2.4.735 4.452.71 6.761-.485 2.374-.67 4.491-.857 6.608"/><path fill="#010407" d="M130.963 80.069c.035 6.943.035 6.945-6.61 6.94-1.808 0-3.615-.023-5.883-.014-.46.022-.45.019-.458-.249-.062-.443-.116-.617-.1-1.198.11-1.774.15-3.143.426-4.569.537-.24.694-.51 1.162-.91 4.125-.032 7.794-.016 11.463 0"/><path fill="#010203" d="M18.037 66v-5.885c3.978 0 7.48 0 11.501.333 1.147.735 1.773 1.136 2.418 1.562.02.024.08.02-.039.336-.732 1.725-1.344 3.133-2.35 4.587-1.446.11-2.499.174-3.976.165-2.147-.088-3.87-.103-5.754-.361-.707-.408-1.254-.573-1.8-.737"/><path fill="#020204" d="M84.99 20.02h5.974c0 3.968 0 7.513-.449 11.518-2.081.461-3.714.461-5.422.089-.15-1.127-.224-1.882-.23-2.978 0-.799-.066-1.254-.055-2.13.044-2.117.01-3.814.057-5.744.079-.231.08-.72.092-.728s.033-.027.033-.027"/><path fill="#463f6e" d="M25.02 80.042 11.488 81.07c-.48-.176-.503-.386-.53-1.325.027-2.407.06-4.085.091-5.763 0 0-.065.002.338.008 2.435-.348 4.467-.7 6.801-.79.633 1.953.964 3.642 1.389 5.81 1.884 0 3.625 0 5.39.257.034.43.043.603.053.775"/><path fill="#01050a" d="M77.883 133.86c.036 1.147.498 2.538.013 3.39-.811 1.424-2.227 2.505-3.388 3.731-1.165-1.226-2.482-2.348-3.434-3.722-.497-.72-.354-1.882-.745-3.408.334-.994.912-1.422 1.57-1.627.081.224.214.682.322 1.036 1.053.325 1.998.294 3.282.279 1.006.108 1.673.2 2.35.3z"/><path fill="#010408" d="M71.82 132c-.579.429-1.157.857-1.776 1.575-1.477.29-2.914.29-5.063.29 0-2.187 0-4.083.23-6.537.425-.848.62-1.136 1.211-1.387 1.454-.012 2.511-.06 3.838-.045.454.077.638.09.91.32.263.496.506.687.826 1.21A270 270 0 0 1 71.82 132"/><path fill="#010208" d="M17.887 72.937c-2.033.353-4.065.705-6.501 1.085-.372-1.773-.354-3.574-.293-5.373.01-.304.201-.603.476-1.372 1.38-.085 2.952-.181 5.191-.166.874.4 1.082.687 1.268 1.378-.063 1.752-.102 3.1-.141 4.448"/><path fill="#010407" d="M138.01 66.98c2.12-.008 4.233-.008 6.215-.008 1.277 6.193.678 6.864-5.96 6.862-.435-.02-.45-.037-.402-.383.022-1.036-.006-1.726.047-2.815.086-1.48.091-2.562.097-3.644 0 0-.003-.004.003-.012"/><path fill="#01021e" d="M31.066 57.37c1.942-.855 5.078-.833 5.519-1.912 1.263-3.095.574-6.371-2.128-9.016 1.393 1.123 3.148 2.533 3.397 4.17.46 3.029.036 6.19-.245 9.401-.492.332-.646.62-1.02 1.115-1.742.398-3.147.65-4.552.901 0 0-.062.005-.082-.314-.332-.783-.643-1.248-.954-1.712.01-.752.019-1.505.065-2.632"/><path fill="#010306" d="M10.604 73.993c.413 1.667.38 3.345.315 5.437-6.993 1.945-7.375 1.638-6.35-5.426 1.793 0 3.69 0 6.035-.01"/><path fill="#020409" d="M70.996 13.052V7.378h6.735c.072 1.622.149 3.345-.176 5.467-1.427.422-2.453.445-3.797.333-.778-.117-1.236-.098-1.96-.11-.445-.025-.623-.02-.802-.016"/><path fill="#010306" d="M78.05 14.018h6.656c.117 1.989.21 3.56.294 5.566-.01.436-.031.455-.285.464-.255.009-.716.16-1.122.075-1.791-.065-3.175-.046-4.72-.222-.416-.416-.672-.637-.902-1.276.043-1.814.061-3.21.08-4.607"/><path fill="#010507" d="M137.838 73.822c.347 7.324-.011 7.733-5.781 5.657-.523-2.048-.662-3.583-.62-5.22.367-.324.49-.578.857-.824.688-.062 1.074-.161 1.644-.13.185.13.635.143.635.143s.371-.255.714-.118c1.071.247 1.8.357 2.527.467z"/><path fill="#010408" d="M78.168 131c1.996-.666 3.993-1.333 6.355-1.999 1.24 5.316-2.13 5.261-6.21 4.857-.43.001-.45-.013-.443-.376.104-1.07.2-1.776.298-2.482"/><path fill="#8af2e2" d="M131.255 74.36c.14 1.536.279 3.071.402 5.074-.017.467-.404.352-.549.493-3.814.126-7.483.11-11.348-.177 3.144-.578 6.484-.884 10.012-1.208.105-1.757.193-3.203.455-4.654.459.153.744.313 1.028.473"/><path fill="#01020a" d="M66.997 19.824c.664-1.663 1.328-3.327 1.995-5.333.44-.389.875-.435 1.653-.05.316 2.091.288 3.75-.128 5.466a61 61 0 0 1-3.52-.083"/><path fill="#0a111f" d="M66.026 125.904c-.195.288-.39.576-.821.985-.409.103-.582.085-1.009.006-.068-2.178.118-4.295.804-6.653.5-.24.885-.123.926.289.06 2.066.08 3.72.1 5.373"/><path fill="#86f6dd" d="M77.925 13.873c.107 1.541.089 2.938.065 4.744-.006.41-.032.44-.268.423s-.709-.027-.716-.424c.314-3.514-1.622-3.815-3.992-3.816-.008-.232-.013-.697.208-.771.544-.178.755-.392.855-.715a66 66 0 0 1 3.457-.012c.38.058.265.425.39.57"/><path fill="#010305" d="m85.168 32 5.303-.001c.448.432.491.864.558 1.622-.097.452-.218.579-.805.67-2.044-.477-3.622-.918-5.196-1.598.004-.238.14-.694.14-.694"/><path fill="#000b0a" d="M94.006 107.169c-.252 1.745-.505 3.49-.917 5.587-.371.302-.581.253-1.103-.074-.393-.426-.473-.573-.44-1.038.022-.75-.07-1.184-.035-1.987.225-1.138.324-1.907.77-2.66.807.067 1.266.12 1.725.172"/><path fill="#2a6560" d="M70.905 19.85c.028-1.66.056-3.318.069-5.39-.015-.414.027-.91.024-1.16.177-.253.355-.257.784.017.25.28.332.773.283 1.193-.1 2.11-.15 3.802-.393 5.545-.194.05-.546.243-.605.133-.06-.11-.162-.338-.162-.338"/><path fill="#87f5e1" d="M91.432 111.962c.08.147.161.294.23.692-.01.252-.478.307-.6.509-1.774.222-3.427.242-5.51-.098-.447-.589-.463-.818-.078-1.054 2.253-.02 4.106-.035 5.958-.05"/><path fill="#0e121f" d="M18.05 68.086a6.3 6.3 0 0 0-.858-.997c-.114-.458.09-.715.613-.997.778.072 1.325.237 1.898.913-.533.701-1.093.891-1.653 1.08m12.68-8.053c.582.435.893.9 1.206 1.659-.625-.107-1.251-.508-1.942-1.203.111-.337.288-.382.736-.456"/><path fill="#233b4f" d="M149.98 75.626c-.01.375-.494.374-.735.374-.087-.858.068-1.717.48-2.784.26.54.263 1.288.255 2.41"/><path fill="#6afbdf" d="m130.052 73.893-.28 4.65c-3.528.323-6.868.63-10.467 1.254-.273.672-.43.941-1.249 1.374-1.034 1.755-1.55 3.261-2.078 4.98-.01.211-.036.635-.036.635-.419.034-.838.068-1.577-.179-.32-.28-.344-.725-.413-1.12-.361-2.305-.626-4.218-.956-6.12-.308-1.774-.687-3.535-1.249-5.345-.214-.043-.64-.14-.807-.437-1.118-.715-2.07-1.136-2.65-1.566 2.808-.388 4.858-.99 2.702-4.304a20 20 0 0 0-.047-.82l1.694-5.876c.93 0 2.206 0 3.904.01.853 1.711 1.283 3.412 1.73 5.909-.9 5.095.8 6.716 5.163 6.3 2.165-.206 4.408.41 6.616.655"/><path fill="#6afcdf" d="M116.957 45.838c-1.747.658-3.494 1.316-5.805 1.977-1.285 2.897-2.046 5.727-6.044 2.783-.826-4.842-4.525-3.123-7.048-4.125.351-2.351.652-4.331.954-6.312 3.741-.02 7.537.02 5.58-6.368 2.356.398 4.008.676 6.133 1.343.786 1.535 1.098 2.682 1.462 4.067.232.566.506.696.866.69-.009.062-.052.18.16.429 1.064.403 1.916.558 2.794 1.004.34.753.654 1.215.971 2.032a293 293 0 0 1-.023 2.48"/><path fill="#fbfcfb" d="M104.93 61.12c.023 1.73.047 3.459.091 5.538.022.35.01.264-.456.298-4.846.052-9.226.07-13.588-.372-.032-3.835-.082-7.209-.044-10.993 2.374-.782 4.66-1.154 6.992-1.083.046 2.378.046 4.313.046 6.613z"/><path fill="#69edd7" d="M98.586 40.09c.126 2.052-.175 4.032-.957 6.459-2.523.471-4.563.496-6.6.088-.01-2.16-.026-3.888.086-5.85.416-.434.704-.634.993-.833 2.017.021 4.034.042 6.478.135"/><path fill="#3a2638" d="M104.954 60.664c-2.159.457-4.294.457-6.983.457 0-2.3 0-4.235.374-6.634 2.508-.833 4.641-1.203 6.75-1.559-.024.015-.005-.04-.005-.04-.038 2.44-.075 4.88-.136 7.776"/><path fill="#6af6e1" d="M91.962 39.623c-.143.53-.431.73-1.194 1.003-2.231-.168-3.99-.41-5.775-.89-.027-.238-.096-.714-.063-1.138.046-2.124.06-3.824.106-5.556.033-.031-.013-.11-.013-.11 1.579.44 3.157.882 5.019 1.55.78 1.754 1.277 3.283 1.92 5.141"/><path fill="#fafcff" d="M112.137 38.966c-.312-1.148-.624-2.295-1.008-3.803 2.08-.718 4.231-1.075 6.856-1.51 0 1.924 0 3.204-.39 4.915-1.137.693-1.884.956-2.96 1.25-.764.105-1.198.18-1.632.255 0 0 .043-.118-.059-.366-.287-.483-.522-.647-.807-.741"/><path fill="#5deed1" d="M110.996 67.99c2.152 3.04.102 3.641-3.013 4.013-1.088.021-1.497.05-1.929-.256-.305-1.146-.588-1.957-.945-3.106-.075-.798-.076-1.259-.078-1.72 0 0 .012.087-.029.102.412.017.864.018 1.913.318 1.758.415 2.92.532 4.081.648"/><path fill="#86f6dd" d="M105.185 50.994c3.921 2.548 4.682-.282 5.634-3.027.23 1.614.23 3.077.23 5.029-1.898 0-3.502 0-5.533-.054-.426-.053-.445.001-.474-.334.028-.76.086-1.187.143-1.614"/><path fill="#8ef0d8" d="M113.215 40.322c.222-.324.656-.4 1.774-.433 1.407.078 2.13.115 2.851.153-.03 1.877-.061 3.754-.488 5.713-.386-.626-.377-1.334-.385-2.694-.339-1.11-.662-1.568-.985-2.027-.851-.154-1.703-.309-2.767-.712"/><path fill="#7adcc7" d="M110.992 67.715c-1.157.158-2.319.04-3.744-.308.793-.3 1.85-.367 3.302-.473.41.143.423.325.442.781"/><path fill="#cefffd" d="M117.907 39.78c-.789.224-1.511.187-2.588.078.392-.334 1.139-.597 2.2-.86.36.174.407.348.388.782"/><path fill="#6afbde" d="M103.996 107.107c-.157-.066-.315-.132-.88-.465-.988-.137-1.569-.008-2.15.121-.733.033-1.466.066-2.658-.117-.755-.118-1.051-.02-1.347.078-.431.033-.862.066-1.83-.165-1.34-.38-2.143-.497-3.02-.949-.07-1.725-.068-3.117.33-4.555 2.395-.406 4.395-.764 6.83-1.104 6.319-.046 6.63-.494 4.7-6.256.033-.189.098-.567.307-.615s.633-.11.93-.346c1.202-1.688 2.108-3.14 3.014-4.59.595 1.641 1.233 3.27 1.775 4.929.642 1.963 1.202 3.954 1.798 5.933 2.098 2.18 8.358 1.162 4.94 7.548-5.373-.33-5.38 3.023-5.528 6.255-1.737.063-3.474.126-5.698-.241-.83-2.107-1.171-3.784-1.513-5.461"/><path fill="#fafcff" d="M111.534 113.043c-.178-3.466-.172-6.819 5.046-6.155.865 2.156 1.327 4.373 1.967 7.444-2.814-.444-4.75-.75-7.013-1.29"/><path fill="#83f5df" d="M111.722 98.597c-.523-1.57-1.083-3.56-1.725-5.524-.542-1.66-1.18-3.288-1.775-4.93-.906 1.452-1.812 2.903-2.966 4.17-.23-1.876-.214-3.566-.2-5.275-.001-.018-.037-.022.33-.077 1.109-.113 1.85-.171 2.952-.12 1.115.168 1.868.225 2.641.258.02-.025-.013-.077-.013-.077.228 3.722.455 7.444.756 11.575"/><path fill="#226b5a" d="M111.107 73.881s.426.098.66.597c.271 4.152.308 7.805.29 11.707a3.2 3.2 0 0 0-.001.755c-.18.031-.36.063-.815.088-.275-.006-.243.046-.29-.238-.066-.49-.086-.695-.062-1.353.101-4.155.16-7.855.218-11.556"/><path fill="#002322" d="M103.995 107.507c.343 1.277.684 2.954 1.08 5.034a75 75 0 0 1-1.08-5.034"/><path fill="#63c2ad" d="M92.186 105.945c.802.117 1.605.233 2.623.568.052.304-.112.39-.54.566-.722.037-1.18-.015-1.947-.075-.306-.006-.311.077-.29-.21a7 7 0 0 1 .154-.85"/><path fill="#71c4b2" d="M116.28 86.89c-.338-.104-.312-.528.007-.717.731-.2 1.143-.21 1.555-.22.054.176.108.35.173.8-.458.264-.928.253-1.736.137m-3.885.085c-.357-.204-.375-.373-.019-.775a5.8 5.8 0 0 1 1.646-.318s.024.445.033.667c-.435.302-.878.382-1.66.426"/><path fill="#63c2ad" d="M101.304 106.87c.243-.236.824-.365 1.566-.297-.303.265-.765.335-1.566.297m-4.076-.045c.029-.2.325-.297.716-.235-.086.218-.267.277-.716.235"/><path fill="#4b5caa" d="M37.834 59.909c.056-3.106.48-6.268.02-9.296-.249-1.638-2.004-3.048-3.476-4.522-1.052-1.085-1.709-2.209-1.981-3.747 1.83-.487 4.272-.095 4.56-.71 1.807-3.861 4.891-2.929 7.887-2.627 2.115.34 4.23.681 6.754 1.503.383 2.445.357 4.408.114 6.411-.218.04-.655.117-1.096.105-4.576-.711-6.231 1.028-5.657 5.15.18 1.295-.096 2.65.051 3.953.35 3.098-1.092 4.226-4.342 3.9-.78-.01-1.226-.01-1.964-.028a19 19 0 0 1-.87-.092"/><path fill="#4e5aa1" d="M44.907 38.574c-3.059.131-6.143-.801-7.95 3.06-.288.615-2.73.223-4.49.332-.356-.401-.397-.838.009-1.61 5.016-.047 4.54-3.307 4.575-6.208h7.92c0 1.457 0 2.725-.064 4.426"/><path fill="#5570c9" d="M51.93 46.88c.025-1.962.051-3.925.09-6.305 1.356-.476 2.698-.535 4.759-.582 1.22.346 1.721.68 2.233 1.274.025.43.04.601.033 1.154.002 1.656.027 2.93-.188 4.342-.42.17-.601.205-1.22.242a837 837 0 0 1-5.707-.124"/><path fill="#4c5ea7" d="M59.002 41.008c-.502-.334-1.004-.67-1.82-1.043.06-1.763.437-3.487.796-5.607 1.769-.627 3.554-.858 5.704-.727.293 3.858 1.265 8.104-4.68 7.377"/><path fill="#453f76" d="M36.624 34.088c.392 2.961.868 6.22-4.092 5.943-.859-1.754-1.327-3.518-1.986-6.004 2.489 0 4.07 0 6.078.06"/><path fill="#4c5caa" d="M43.951 111.89c-1.72.358-3.44.716-5.548.68.616-5.456-2.468-5.933-6.253-5.626-.261-1.91-.523-3.82-.068-5.877 3.547.04 6.388.239 5.712-4.056.046-2.052.09-4.105.146-6.943-.025-1.495-.06-2.205-.017-2.991.076-.077.229-.23.624-.177 2.11-.312 3.826-.678 5.77-.942.53.299.689.578.7 1.412-.01 2.61.224 4.781-.072 6.878-.705 4.989 1.516 6.556 6.336 5.82.485.325.662.594.466 1.16-.422 1.688-.565 3.142-1.122 4.655-4.667-.239-7.387 1.077-6.674 6.006M25.43 80.022c-.42-.152-.429-.325-.435-1.007.02-.679.036-.847.48-1.015 3.342-.242 6.258-.484 9.864-.782l-2.323 5.666c1.785.762 3.37 1.439 4.971 2.425.067.72.116 1.128.165 1.537 0 0-.153.154-.455.22s-.74.18-.74.18c-1.412-.4-2.824-.799-4.611-1.204-1.599-2.849-1.17-7.37-6.915-6.02"/><path fill="#454178" d="M31.968 107.298c3.967-.661 7.051-.184 6.043 5.309-2.085.47-4.168.509-6.251.548.008-1.835.016-3.67.208-5.857"/><path fill="#01031a" d="M44.088 112.176c-.85-5.216 1.87-6.532 6.883-6.104 2.806.426 4.852.722 7.091 1.349.466 2.069.74 3.806 1.013 5.544a45 45 0 0 1-1.78.89c-.894-2.05 1.379-5.895-3.181-5.753-3.255.101-8.278-2.209-8.165 4.422-.575-.02-1.149-.04-1.86-.348"/><path fill="#02041d" d="M37.51 97.188c.96 4.118-1.881 3.918-5.114 3.657 1.341-1.21 3.085-2.345 5.113-3.657m-.545-9.64c-.008-.302.43-.416.656-.405.26.72.295 1.43.263 2.488-.348-.36-.63-1.071-.919-2.083"/><path fill="#fefdfd" d="M130.227 73.888c-2.383-.24-4.626-.856-6.79-.65-4.364.416-6.063-1.205-5.04-5.93 4.04-.376 7.975-.328 12.4.162.725 2.271.96 4.099 1.193 5.927-.062.284-.186.538-.553.863-.466-.059-.751-.219-1.21-.372"/><path fill="#68f9e3" d="M132.294 73.435c-.538-1.866-.772-3.694-1.023-5.905.361-.43.74-.478 1.656-.218a156 156 0 0 1 4.903 3.723c.027.69.055 1.38.033 2.416-.777.236-1.505.126-2.583-.102-.35-.12-.348-.15-.187-.292.112-.374.063-.604.013-.835-.3.23-.6.46-1.013.757-.111.069-.34.195-.34.195-.385.1-.77.2-1.46.26"/><path fill="#8cf3de" d="M137.91 70.636c-1.535-.74-2.99-1.879-4.7-3.25 1.148-.28 2.552-.33 4.377-.387.414 1.075.409 2.156.323 3.637"/><path fill="#4fa6fb" d="M59.012 41.267c5.935.468 4.963-3.778 5.054-7.698.335-2.184.652-3.944 1.273-6.142a1.33 1.33 0 0 1 1.159-.583c2.053.013 3.696.015 5.394.44-.322 4.117 1.002 6.235 5.068 6.265.013 2.643.013 4.847.013 6.95 3.204.62 5.58 1.079 7.97 1.98.335 3.751.656 7.06.66 10.575-.36 1.455-.402 2.701-.518 4.388-.03 3.384.013 6.327-.092 9.608-1.43 1.876-2.709 3.414-4.426 4.954-2.478-.003-4.52-.008-6.67-.229-.306-.482-.56-.672-.877-1.148.01-1.09.024-1.818.393-2.566 1.435-.338 2.515-.655 3.524-1.052-.07-.079-.03-.287.23-.221.386-.234.514-.533.725-1.282.046-4.103.008-7.755-.087-11.675-.382-.279-.707-.29-1.39-.31-1.31-.032-2.264-.055-3.486-.255-.477-.224-.686-.272-1.005-.586-.216-.427-.322-.587-.353-1.114.047-1.362.02-2.358.08-3.647-.154-.609-.397-.924-.632-1.423.007-.183-.011-.55-.31-.827-2.266-.407-4.332-.206-6.17-.759-1.937-.581-3.657-1.883-5.471-2.87-.015-.172-.03-.343-.056-.773"/><path fill="#455da6" d="M71.837 26.86c-1.643-.001-3.286-.003-5.365-.239-.437-.234-.473-.685-.491-.958a11 11 0 0 0-.778-1.652c-.033-.448-.066-.895.245-1.836 2.056-.382 3.766-.271 5.674-.13.198.029.597.074.624.373.014.702.001 1.103-.14 1.627-.169.234-.27.371-.236.452.087.209.234.393.382.904.076.737.127 1.157.174 1.533-.003-.045-.089-.074-.089-.074"/><path fill="#475788" d="M70.924 22.015c-1.71-.111-3.42-.222-5.43-.174.083-.508.465-1.176 1.175-1.93 1.372-.04 2.417.007 3.848-.004.388-.057.49.17.514.565-.02.777-.064 1.16-.107 1.543m-5.794 2.337c.326.119.58.579.645 1.352-.188.313-.603.375-.603.375a12 12 0 0 1-.042-1.727"/><path fill="#4b7bc5" d="M65.125 26.326c.047-.247.462-.31.668-.35s.242.411.268.634-.417.379-.648.417c-.266-.126-.3-.29-.288-.701"/><path fill="#64e9d2" d="M84.953 114.006c-.224 1.734-.448 3.469-1.189 5.618-1.905.526-3.294.637-4.902.66-.22-.086-.693-.12-.753-.174-.06-.055-.181-.163-.147-.516-.699-1.394 1.94-4.458-1.903-3.938.664-1.105 1.304-1.892 2.298-2.512 2.434.397 4.515.63 6.596.862"/><path fill="#5de9d6" d="M71.987 127.01c-.31-.107-.554-.298-.65-1.093-.042-1.984-.166-3.45-.299-5.162-.008-.245-.022-.735.234-.83.732-.36 1.208-.627 1.94-.622 1.743.395 3.23.52 4.716.644 0 0 .12.108.174.398s.22.73.133.962c-.088.233-.248.702-.496.88-.121 1.076.006 1.975.243 3.093.286.507.524.728.835 1.046.012.164.007.494.007.494-.26.222-.52.444-1.095.9-.316.235-.746.229-.982-.032-1.397-.408-2.559-.555-3.814-.87-.378-.048-.662.072-.946.191"/><path fill="#47bfc0" d="M85.092 113.882c-2.22-.109-4.3-.34-6.738-1.154-.356-2.247-.355-3.912-.082-5.624.451-.008.63.03 1.088.314 2.047.364 3.817.482 5.626.588.04-.012.122-.025.084.377-.024 1.48-.01 2.557.004 3.634.016.23.031.46.065 1.033.018.345.092.71-.047.832"/><path fill="#f5fdfd" d="M77.987 122.01s.16-.47.398-.79c.43-.463.582-.64.697-.849 1.388-.11 2.777-.22 4.582-.375.418 2.243.418 4.53.418 6.986-1.823 0-3.097 0-4.815-.081-.443-.081-.438-.41-.384-.915-.167-1.347-.388-2.191-.659-3.277-.05-.242-.237-.7-.237-.7"/><path fill="#8cf3de" d="m76.983 127.949.645.01c.277.767.338 1.528.47 2.665-.027 1.082-.124 1.788-.238 2.85-.684.265-1.35.173-2.61-.13a26 26 0 0 0-3.137-.438s-.133-.458-.213-.682c-.019-1.61.044-2.995.096-4.797.275-.537.559-.657.927-.193.81 1.942 1.536 3.3 2.263 4.658z"/><path fill="#50a6fa" d="M78 107.15c0 1.666-.002 3.331 0 5.412-.637 1.202-1.277 1.989-2.229 3.227a100 100 0 0 1-2.815 3.243c-.476.266-.952.532-2.062.882a42 42 0 0 1-3.247.207 61 61 0 0 0-1.762-.002s-.385-.117-.586-.133c-.475-2.069-.749-4.122-1.05-6.887.247-2.542.522-4.37 1.07-6.192.44-.061.608-.13 1.224-.144 3.768.024 7.088-.007 10.673.06.451.074.638.051.791.1-.033.071-.006.227-.006.227"/><path fill="#445bac" d="M65.046 106.9c-.275 1.828-.55 3.657-.984 5.853-1.501.326-2.842.286-4.585.229-.675-1.755-.949-3.492-1.177-5.69.264-.743.483-1.025 1.067-1.296 1.77.298 3.174.586 4.862.914.476.045.667.05.826.053-.033-.002-.009-.064-.009-.064"/><path fill="#86f6dd" d="M117.912 85.548c-.482.416-.894.425-1.615.413.208-1.529.725-3.035 1.524-4.733.241 1.177.2 2.546.09 4.32"/><path fill="#4b5bab" d="m37.97 85-4.954-2.116 2.323-5.666c-3.606.298-6.522.54-9.882.449-.434-.778-.425-1.223-.081-1.672 4.679-2.133.605-2.79-.37-4.325-.002-.78.003-1.225.369-1.71 1.768-1.051 3.177-2.062 4.586-3.072a531 531 0 0 0 1.956-4.542c1.525-.568 2.93-.82 4.946-1.215.794-.14.977-.14 1.152.332-.02 8.158-.033 15.848-.045 23.537"/><path fill="#463d7b" d="M25.041 76a48 48 0 0 0-.01 1.667c0 .501-.017.67-.06 1.09-1.769.252-3.51.252-5.394.252-.425-2.167-.756-3.856-1.389-5.809-.262-1.611-.223-2.96-.16-4.711.582-.593 1.142-.783 1.836-1.24a17.2 17.2 0 0 1 5.585.12c.043 1.107-.195 1.869-.434 2.63a326 326 0 0 0-.02 2.07c.013 1.8.03 2.865.046 3.93"/><path fill="#4c5caa" d="M25.375 69.96c-.121-.722.117-1.484.498-2.517 1.195-.336 2.248-.4 3.694-.51-1.015.965-2.424 1.976-4.192 3.027"/><path fill="#60eed3" d="M84.731 26.939c.066.456.133.911-.098 1.972-.414 1.762-.53 2.918-1.074 4.086-2.14.006-3.85 0-5.561-.001.001.004.007.007.004-.392.33-2.174.665-3.949 1.357-5.76.81-.183 1.262-.333 2.064-.36 1.337.232 2.322.344 3.308.455"/><path fill="#fdfcfc" d="M84.808 26.52c-1.063.308-2.048.196-3.416-.32-1.026-1.002-1.67-1.598-2.337-2.556-.019-1.32-.013-2.277.045-3.315.052-.08-.066-.232-.066-.232 1.384-.02 2.768-.04 4.63.21.634.5.848.644 1.121.7.034 1.698.067 3.395.023 5.512"/><path fill="#71d3bc" d="M83.986 32.985c.117-1.156.233-2.312.58-3.731.303.491.377 1.246.527 2.373.075.372-.061.828-.065 1.066s.041.318-.246.325a11 11 0 0 1-.796-.033"/><path fill="#e4e6e9" d="M84.865 20.775c-.353.176-.567.033-.794-.383-.072-.183.39-.335.632-.336.243-.001.24.488.162.72"/><path fill="#4b8278" d="M72.221 133.26c.74-.278 1.589-.202 2.69.069-.692.225-1.637.256-2.69-.069"/><path fill="#4b5cad" d="M65.926 120.53c.43-.416.9-.42 1.906-.192 1.082.39 1.627.548 2.173 1.105-.004 1.729-.01 3.059-.015 4.388-1.057.05-2.114.098-3.568.11-.416-1.69-.436-3.344-.496-5.41"/><path fill="#3e6894" d="M70.26 125.896c-.265-1.394-.26-2.724.005-4.467.434-.418.608-.423.781-.429.125 1.467.249 2.933.205 4.698-.353.287-.537.275-.991.198"/><path fill="#5c70c6" d="m38.023 60.994-.824-.009c-.236-.352-.082-.64.41-.972.418-.08.611-.055.988.2-.01.493-.263.677-.574.78"/><path fill="#5aab9b" d="M72.114 14.09s-.082-.493-.066-.742c.474-.268.932-.287 1.71-.17.22.46.008.673-.757.818-.443.04-.887.094-.887.094"/><path fill="#86f6dd" d="M77.965 19.035c.236.23.492.45.908.866.16.196.279.347.058.351s-.588-.045-.667-.338c-.154-.481-.23-.669-.306-.857 0 0 .026-.03.007-.022"/><path fill="#8af2e2" d="M134.932 73.199s-.003.03.005.012c.007-.018-.364.237-.364.237s-.45-.012-.635-.143.044-.257.335-.252.659.146.659.146"/><path fill="#6afbde" d="M73.022 15.033c2.362-.232 4.298.069 3.976 3.833-.006.815-.011.982-.412 1.144a858 858 0 0 0-3.573-.01c-.011-.002-.035-.008-.03-.422.017-1.791.028-3.168.039-4.545"/><path fill="#7be1cf" d="m76.982 20.015.023-.752c.008-.25.48-.24.717-.223.312.205.388.393.41 1.245-.016 1.726.02 2.786.022 4.07-.033.223-.165.654-.443.404-.428-1.748-.579-3.246-.73-4.744"/><path fill="#8cf3de" d="M73.014 14.8c-.003 1.61-.014 2.987-.204 4.77-.179.407-.525.372-.634.359s-.31.074-.31.074c.05-1.69.1-3.382.199-5.493.05-.42.493-.473.715-.44.22.033.226.498.234.73"/><path fill="#68f9e3" d="M85.474 112.011c-.414-1.071-.428-2.148-.039-3.622 2.253.281 4.101.96 5.95 1.637.091.434.183.867.16 1.618-1.965.332-3.818.347-6.07.367"/><path fill="#87f5e1" d="M91.51 109.657c-1.974-.309-3.822-.987-6.036-1.67-.366-.006-.448.007-.45-.19-.003-.195.032-.616.45-.691 2.117-.112 3.815-.15 5.75-.03.421.107.604.056.787.005 0 0 .005-.083-.036-.091-.14.76-.239 1.529-.464 2.667"/><path fill="#4899b3" d="M71.122 22.044c-.155-.412-.111-.795-.032-1.462.036-.284.388-.476.582-.527s.395-.14.39.232c-.118.858-.23 1.345-.343 1.832 0 0-.399-.045-.597-.075"/><path fill="#010206" d="M110.94 73.585c.108 3.997.05 7.697-.357 11.889-1.102.746-1.855 1.002-2.608 1.258-.74.058-1.48.116-2.588-.012-.368-.186-.372-.669-.383-1.089-.053-1.813-.094-3.206-.191-4.822-.243-.52-.508-.637-1.285-.611-2.452-.02-4.473-.003-6.76-.038-.445-.024-.624.004-1.131-.001-.766-.08-1.204-.128-1.68-.47-.444-.608-.848-.921-1.252-1.235-.234.51-.467 1.02-1.076 1.565-1.127.004-1.88-.028-2.719-.434-2.87-1.987-5.605-3.09-8.35.406-2.804.097-5.166.155-7.78.149-.426-.067-.6-.069-1.202-.095-6.836-.031-13.243-.04-19.623-.475-.09-1.839-.205-3.25-.253-4.896.069-.236.341-.645.626-.649.803-.18 1.322-.357 2.152-.568.717-.126 1.122-.216 1.887-.21.897-.324 1.434-.743 2.19-1.447.314-1.728.408-3.172.949-4.704 4.092-.105 7.737-.122 11.674-.117.488.037.683.052.885.313.006.247.141.723.048 1.166-.013 1.869.067 3.295.172 5.178 4.527-.242 8.62-.462 13.151-.657 2.013.024 3.585.024 5.61.024 0-2.26 0-4.156-.021-6.028l-.066.07c4.38-.019 8.76-.037 13.606-.09.468.427.47.888.467 2.032.346 1.487.696 2.291 1.045 3.095.409-.03.818-.058 1.534-.07 1.26.437 2.211.858 3.33 1.573"/><path fill="#86f6dd" d="M113.952 85.486c-.355.425-.779.453-1.521.466-.356-3.669-.393-7.322-.45-11.432a72 72 0 0 1 1.015 4.847c.33 1.902.595 3.815.956 6.12"/><path fill="#010609" d="M85.16 57.002c.041-1.247.084-2.493.854-3.89 5.75.5 4.959-3.078 5.01-6.042 2.042-.025 4.082-.05 6.554-.15 3.005.555 6.704-1.164 7.53 3.678.02.823-.038 1.25-.042 1.996-2.08.69-4.213 1.06-6.767 1.45-2.706.393-4.992.765-7.735 1.548-2.106.743-3.755 1.076-5.405 1.41"/><path fill="#72f8d7" d="M116.01 41.326c.295.167.618.626.954 1.38-.301-.165-.615-.627-.955-1.38"/><path fill="#cefffd" d="M112.19 39.203c.232-.143.467.02.763.442-.258.254-.532.124-.764-.442"/><path fill="#010205" d="M85.085 57.442c1.724-.774 3.373-1.107 5.391-1.44.419 3.373.469 6.747.5 10.582-.017.46.027.414-.37.42-1.797.05-3.195.094-4.793-.005-.2-.142-.671-.287-.671-.287-.044-2.943-.087-5.886-.057-9.27"/><path fill="#4abdbf" d="M91.03 46.637c-.057 3.397.735 6.975-4.7 6.268-.731-3.366-1.052-6.675-1.36-10.769.024-1.245.037-1.703.05-2.162 1.758.242 3.517.484 5.621.886.362 1.889.378 3.617.389 5.777"/><path fill="#4bc0c8" d="M83.559 32.997c.597.001.766.014 1.19.052.24 1.725.227 3.425-.232 5.545-2.02.324-3.595.228-4.879.15l-1.641-5.753c1.711.006 3.423.012 5.562.006"/><path fill="#4bafe6" d="m77.998 32.996 1.64 5.747c1.284.079 2.858.175 4.846.275.413.004.482.48.51.718a25 25 0 0 1-.038 1.958c-2.403-.116-4.779-.576-7.983-1.195 0-2.103 0-4.307.251-6.987.428-.486.604-.498.78-.51 0 0-.005-.002-.006-.006"/><path fill="#7adcc7" d="M106.054 71.747c-.326-.469-.676-1.273-.949-2.422.36.465.644 1.276.95 2.422"/><path fill="#020305" d="M92.031 106.793c-.203.339-.386.39-1.094-.01-4.663-.543-8.8-.633-13.151-.683-.512.14-.718.335-.835.626-3.32.03-6.64.061-10.405-.166-.445-.257-.497-.66-.513-.972-.291-1.067-.565-1.82-.901-2.913-.033-.796-.003-1.254.471-1.692 4.112-.219 7.78-.456 11.677-.76.23-.067.67-.25 1.025-.103 2.467.042 4.58-.063 7.064-.174 1.785-.335 3.2-.663 4.777-.735.74.8 1.32 1.346 1.9 1.89a98 98 0 0 0 .066 4.51c.029.52-.015.708-.08 1.182"/><path fill="#00070f" d="M92.441 101.055c-.975-.498-1.554-1.043-2.282-2.224-.259-6.167 4.645-5.36 8.074-6.85 1.156.628 1.962 1.244 2.365 1.944-.856 2.06-1.309 4.033-1.762 6.007-2 .359-4 .717-6.395 1.123"/><path fill="#02030c" d="M101.001 93.84c-.806-.615-1.612-1.231-2.73-2.274-.996-6.333 3.083-5.635 6.744-5.515 0 0 .004.483.004.724 0 .24.036.245-.266.508-.428 2.123-.556 3.984-.684 5.845 0 0-.065.378-.465.613-1.134.19-1.868.145-2.603.1"/><path fill="#5deed1" d="M100.598 93.925c1.138-.04 1.872.006 2.973.005 2.33 5.527 2.019 5.975-4.3 6.02.018-1.992.471-3.966 1.327-6.025"/><path fill="#002322" d="M104.278 93.08c-.081-1.813.047-3.674.477-5.78.287 1.447.27 3.137.205 5.249-.049.42-.473.482-.682.531"/><path fill="#083432" d="M108.338 86.842c.39-.366 1.143-.622 2.201-.915.326.168.346.374.393.887-.726.252-1.479.195-2.594.028"/><path fill="#5c6ec7" d="M38.015 61.463c.319-.573.571-.757.873-1.233.554-.211 1-.211 1.832.124 1.321 1.773 2.258 3.21 3.22 5.108.385 4.49.743 8.52 1.094 12.892-.001.8.006 1.258-.136 2.061-.368 2.045-.589 3.743-.81 5.441-1.715.366-3.43.732-5.541 1.044-.444-.463-.493-.872-.56-1.59-.005-8 .008-15.689.028-23.847"/><path fill="#5c70c6" d="M43.914 65.001c-.936-1.437-1.873-2.874-2.86-4.637 2.864-.01 4.306-1.137 3.956-4.235-.147-1.303.129-2.658-.051-3.953-.574-4.122 1.081-5.861 5.64-4.781 1.074 2.27 1.724 4.158 2.341 6.475-.388 2.347-.744 4.266-1.42 6.17-1.057.298-1.792.609-2.86.93-.775.034-1.217.056-2.045.065-1.156 1.313-1.928 2.64-2.7 3.966"/><path fill="#57a2f4" d="M52.974 53.442c-.65-1.889-1.3-3.778-1.934-6.035.017-.37.454-.446.672-.486 1.974.002 3.731.045 5.911.51.51 1.825.598 3.228.568 4.975-.152.798-.186 1.25-.211 1.656.01-.048.106-.04-.285-.232-1.834-.258-3.278-.323-4.721-.388"/><path fill="#5caaf6" d="M59.045 42.42c1.837.607 3.557 1.909 5.493 2.49 1.84.553 3.905.352 5.887.79-.472.559-.96.808-1.786 1.111-.786.125-1.234.197-1.583.204.1-.066.013-.288-.157-.473-.758-.067-1.344.05-2.357.217-2.136.148-3.846.248-5.438.249.119-.1-.007-.382-.007-.382-.025-1.275-.05-2.55-.052-4.205"/><path fill="#193a5a" d="M58.308 52.061a194 194 0 0 1-.247-4.633c.195-.46.376-.495.796-.665.24-.137.366.146.311.49-.001.506.052.667.04 1.172a251 251 0 0 1-.9 3.636"/><path fill="#5d6ec7" d="M51.065 99.954c-4.604.85-6.825-.717-6.12-5.706.296-2.097.062-4.269.495-6.816 2.136-.386 3.846-.364 5.627-.11.26.516.523.69.897 1.148.113 1.443.188 2.492.189 3.796-.062.605-.05.956-.174 1.694-.396 2.257-.655 4.125-.914 5.994"/><path fill="#5870ca" d="M59.001 105.986a6.5 6.5 0 0 1-.893.974c-2.285-.166-4.33-.462-6.723-.947-.203-1.643-.06-3.097.75-4.793a80 80 0 0 1 6.2-1.234c.236.014.687.147.683.366-.004.218-.007.656-.01.902-.004.247.01.74.003 1.14a841 841 0 0 0-.01 3.592"/><path fill="#010210" d="M50.995 87.09a194 194 0 0 1-5.552-.129c-.437-.425-.596-.704-1.127-1.003-.007-1.8.214-3.498 1.007-5.572 2.278-.427 3.983-.478 5.596-.453-.093.076.004.296.034.721.034 2.43.038 4.433.042 6.436"/><path fill="#55a1f5" d="M58.101 99.972c-1.766.335-3.533.671-5.687 1.014-.471-.324-.648-.593-1.133-.917.043-1.984.302-3.852 1.12-6.116 2.24-.267 3.92-.14 5.595.418.031 2.155.068 3.878.105 5.6"/><path fill="#7ef4df" d="M135.093 73.057c-.161.142-.528.002-.708-.072.12-.304.42-.534.721-.763.05.23.1.461-.013.835"/><path fill="#020207" d="M72.059 67.045c-.196-.014-.39-.03-.826-.481-.259-2.113-.278-3.789-.256-5.885.368-2.503.695-4.586 1.252-6.701.56-.074.807-.242.969-.535.953.023 1.906.046 3.359.235.762.27 1.03.355 1.305.42.038 3.653.076 7.305-.163 11.48-.539.655-.71.862-.791 1.144 0 0-.042.208-.29.189-.692-.068-1.135-.116-1.804-.371-1.046.064-1.866.334-2.726.595-.04-.01-.03-.09-.03-.09"/><path fill="#010205" d="M58.19 52.406c.396-1.442.673-2.54 1.417-4.006 2.76-.685 5.055-1.002 7.35-1.32.448-.072.896-.144 1.931-.135.762.15.937.22 1.2.451.24.357.422.516.84.718.2.083.635.098.635.098.027.996.055 1.992-.161 3.335-.245.347-.562.475-.754.602-.424.351-.562.622-.872 1.217-1.811.421-3.356.566-5.33.677-2.445 0-4.46.033-6.476.066.035-.452.07-.905.22-1.703"/><path fill="#3f2a40" d="M70.84 52.022s.317-.128.487-.109c.275.18.381.34.578 1.032.092.71.093.887.095 1.064-.328 2.084-.655 4.167-1.443 6.62-6.916.34-7.626-.6-5.68-6.552 1.543-.145 3.088-.29 5.102-.83.728-.613.858-.889.861-1.225"/><path fill="#47bdc2" d="M78.002 32.604c-.174.41-.35.422-.79.47-4.318.445-5.642-1.673-5.32-5.79-.055-.424.03-.395.29-.386.431-.01.602-.03 1.226-.005 1.975-.038 3.496-.12 5.17-.18.15.025.423.167.423.167-.334 1.775-.668 3.55-1 5.724"/><path fill="#6aaeea" d="m84.996 72.955-12.71.681c-.106-1.883-.186-3.31.04-5.168.307-.432.73-.386.73-.386a28 28 0 0 0 .064 2.768c.299.863.56 1.048.887 1.14 2.04.006 4.082.011 6.959.016 1.9.006 2.963.012 4.03.251.002.233 0 .698 0 .698"/><path fill="#4bafe6" d="m84.993 72.025-3.59-.021c.881-1.54 2.16-3.078 3.59-4.954.149-.338.62-.193.81.164.191.356.202.785.198 1.134a47 47 0 0 1-.948 3.665z"/><path fill="#69a6de" d="M73.413 68.061c-.356.02-.78-.025-.994-.036s-.348-.486-.354-.733-.017-.166.39-.193a79 79 0 0 0 2.585-.352c.443.048.886.096 1.648.243-.76.416-1.84.733-3.275 1.071"/><path fill="#4c85bd" d="M70 47.236c-.175-.07-.35-.14-.774-.344.239-.384.727-.633 1.498-.914.284-.031.302.335.268.66-.035.326-.038.616-.276.557-.237-.059-.717.04-.717.04"/><path fill="#57a2f4" d="M73.897 71.775c-.217.123-.478-.062-.774-.562.213-.11.468.08.774.562"/><path fill="#0b2646" d="M77.167 66.788c-.178-.348-.007-.555.449-.76.065.227-.063.526-.45.76"/><path fill="#315582" d="M77.805 53.83c-.218.203-.486.118-.89-.143.183-.146.508-.135.89.144m-5.576.147c-.23-.146-.232-.323-.214-.767.228-.217.437-.17.914.055.107.47-.14.638-.7.712"/><path fill="#1f436b" d="M71.651 47.919c-.088.293-.523.278-.653.005-.13-.274-.044-.67-.044-.67s.003-.29.03-.432c.27.173.513.488.667 1.097"/><path fill="#7ae9e8" d="M72.956 26.848c-.172.02-.343.04-.77.095-.307-.385-.358-.805-.356-1.832.004-.8-.046-.994-.095-1.188.012-.402.025-.803.01-1.505.087-.786.2-1.273.426-2.118.114-.358.46-.323.634-.315.173.007.197.013.203.446-.013 2.428-.033 4.423-.052 6.417"/><path fill="#4899b3" d="M71.606 24.045c.178.072.228.266.199.75-.201.095-.348-.09-.435-.298-.034-.081.067-.218.236-.452"/><path fill="#47bfc0" d="M73.213 119.303c.578-1.202 1.412-2.132 2.535-3.196 4.153-.971 1.515 2.093 2.214 3.487-1.52.229-3.007.104-4.75-.291"/><path fill="#bffdf5" d="M78.862 120.285c.105.295-.048.472-.39.703-.15.087-.317-.354-.31-.588.007-.235.48-.202.7-.115"/><path fill="#68fadc" d="M76.747 127.688c-.363 1.575-.962 2.89-1.561 4.204-.727-1.358-1.453-2.716-2.17-4.49 1.172-.269 2.334-.122 3.731.286"/><path fill="#3a70c0" d="M71.038 120.755c-.165.25-.34.256-.774.275-.805-.144-1.35-.301-2.08-.675.569-.264 1.322-.31 2.453-.345.379.01.393.5.401.745"/><path fill="#7be1cf" d="M77.739 122.187c.248-.178.434.28.395.869a35 35 0 0 1-.262 2.004c-.127-.898-.254-1.797-.133-2.873"/><path fill="#bffdf5" d="M77.982 125.28c-.036-.692.038-1.164.202-1.982.311.497.532 1.34.687 2.524-.365.186-.603-.035-.889-.542"/><path fill="#083432" d="M78 106.06c4.137.09 8.274.18 12.7.565-1.41.332-3.109.369-5.65.423-2.552.052-4.26.088-5.967.124-.18-.038-.36-.076-.811-.068-.271.046-.298-.11-.276-.38.023-.269.005-.664.005-.664"/><path fill="#66bebe" d="M79.36 107.418c1.43-.282 3.138-.318 5.27-.295.426.058.391.479.354.687-1.807.09-3.577-.028-5.624-.392"/><path fill="#0b2646" d="M77.786 106.1c.215-.04.233.355.244.553-.176.221-.363.244-.814.17-.148-.388.058-.583.57-.723m-11.736-.2s.05.403.048.605c-.171.272-.34.34-.78.402-.272-.008-.296.054-.273-.201.06-.424.095-.592.35-.76.219 0 .654-.046.654-.046"/><path fill="#53a4f7" d="M59.367 105.996c-.365-1.075-.363-2.14.057-3.6 1.802-.395 3.185-.394 4.568.015-.015 1.759-.032 3.11-.048 4.46a123 123 0 0 0-4.577-.875"/><path fill="#5b94cf" d="M64.229 106.91c-.269-1.39-.252-2.74-.233-4.746.004-.655-.009-1.148.19-1.137.2.01.596.061.708.085.113.025.265-.148.265-.148-.03.457-.06.915-.106 2.073.03 1.437.076 2.173.123 2.91a4.3 4.3 0 0 0-.098.76c-.182.253-.373.248-.85.203"/><path fill="#4c5caa" d="M25.376 75.995c-.352-1.06-.368-2.126-.373-3.591.978.8 5.052 1.458.373 3.59"/><path fill="#ebfaf8" d="M79.36 26.845c-.36.035-.631-.107-.86-.41-.324-.676-.417-1.051-.51-1.426 0 0 .131-.431.386-.694.254-.263.703-.309.703-.309.644.596 1.287 1.192 1.962 2.072-.42.433-.872.583-1.682.767"/><path fill="#b3f7ea" d="M79.055 23.644c.024.362-.425.408-.646.448-.257-1.02-.293-2.081-.198-3.513.132-.372.498-.323.668-.246.163 1.034.157 1.991.176 3.31"/><path fill="#5fedd8" d="M77.711 24.759c.372.625.465 1 .637 1.653-1.444.36-2.965.443-4.94.48-.433-2.038-.413-4.033-.389-6.46 1.061-.43 2.116-.429 3.567-.422.546 1.503.697 3 1.125 4.749"/><path fill="#29336f" d="M105.004 85.631c-3.65.3-7.73-.398-7.084 5.923-3.116 1.916-8.02 1.11-7.922 7.021-1.428.708-2.844 1.036-4.625.943.667-6.77-3.839-5.477-7.376-5.95.845-5.26-.965-7.492-6.002-7.006-.005-2.132 0-3.838.212-5.632.474-.242.68-.455.825-.726 2.362-.058 4.724-.116 7.97-.166 3.254-.022 5.624-.05 7.995-.079.752.032 1.505.064 2.963.099a45 45 0 0 0 2.035-.074c.438.047.876.094 1.75.309.72.084 1.004.002 1.289-.081 2.02-.017 4.042-.034 6.611.153.74.407.966.562 1.224.667z"/><path fill="#121e4a" d="m72 81.017-.017 5.557c-.002.438-.03.458-.399.444-1.105.042-1.84.1-2.84.102-.442-.015-.618.023-1.24-.007a379 379 0 0 0-9.934-.08c-2.153.36-3.898.702-5.644 1.044-.336-.064-.599-.24-.86-.756-.075-2.234-.079-4.238.132-6.75.387-.531.558-.552.73-.573 6.407.008 12.814.016 19.646.284.424.26.425.735.425.735"/><path fill="#fdfcfc" d="M64.446 54.043c-1.515 5.986-.805 6.927 6.07 7.007.44 1.725.458 3.4.424 5.492-3.697.432-7.342.45-11.696.482-.888-.02-1.065-.056-1.244-.057-.002.035.068.038.032-.223-.089-.428-.142-.596-.12-1.217.108-4.138.141-7.821.174-11.504 0 0-.097-.009-.106.039 2.006.014 4.02-.019 6.466-.019"/><path fill="#4da6fc" d="M47 61.048c.443-.022.885-.044 1.811.28 1.392 2.448 2.3 4.551 3.595 6.66 4.347-.075 5.353 1.684 3.6 5.162-.404.09-.81.181-1.82.156-1.119.164-1.63.444-2.143.723 0 0-.272.409-.544.898-.386 1.352-.5 2.213-.919 3.223-1.731.047-3.157-.052-4.581-.617.334-5.806.667-11.145 1-16.485"/><path fill="#01010d" d="M88.91 79.585c-2.284.403-4.654.431-7.466.413 1.861-3.504 4.596-2.4 7.466-.413"/><path fill="#66bebe" d="M86.005 68s-.01-.43-.001-.644c1.407-.258 2.805-.302 4.623-.376.42 1.867.42 3.764.42 6.023-2.026 0-3.598 0-5.61-.024-.44-.024-.44-.49-.441-.722-.003-.232.037-.24.464-.246 1.759-.735 3.091-1.464 4.423-2.193z"/><path fill="#69a6de" d="M56.367 73.246c1.392-3.574.386-5.333-3.948-5.532-.36-.462-.344-.644.093-.779 2.134.056 3.845.063 5.556.07 0 0-.07-.003-.067.395.114 1.827.226 3.256.337 4.685-.537.42-1.074.838-1.97 1.161"/><path fill="#3e6894" d="M50.886 78.002c.114-.862.227-1.723.544-2.839.32 1.157.436 2.568.525 4.407-.199.449-.37.47-.787.575-.245.084-.342-.136-.257-.522a9.4 9.4 0 0 0-.025-1.62"/><path fill="#193a5a" d="M58.558 71.8c-.331-1.144-.443-2.573-.555-4.435.176-.397.353-.36.793-.253.169 1.516.075 2.96-.238 4.688"/><path fill="#01010d" d="M93.956 79.69c-.404.32-.847.345-1.62.332-.098-.549.135-1.058.369-1.568.404.314.808.627 1.251 1.235"/><path fill="#2f5475" d="M52.328 74.025c.227-.275.74-.555 1.546-.683-.224.326-.743.503-1.546.683"/><path fill="#25294a" d="M96.768 80.16c-.019.135-.303.217-.695.166.071-.162.25-.19.695-.166m8.045.65c-.202.117-.427-.038-.736-.408.228-.23.493-.113.736.407m-32.606.121c-.208.087-.209-.387-.205-.624.178-.235.352-.233.778-.166.107.335-.1.548-.573.79"/><path fill="#121e4c" d="M77.988 94.01c3.546.03 8.052-1.262 7.015 5.515-2.118.532-4.23.637-6.698.344-.402-.559-.45-.72-.428-1.286.067-1.778.066-3.15.076-4.535.011-.014.035-.038.035-.038"/><path fill="#89b4e8" d="M77.809 98.989c.047.16.094.321.141.733 0 .25-.44.434-1.123.384-4.416-.055-8.15-.06-11.859-.493-.005-2.14-.035-3.851.2-5.581.441-.024.618-.03.805.395-.416 3.626.957 4.898 4.167 4.61 2.264-.203 4.56-.056 7.05-.058.206.007.619.01.619.01"/><path fill="#0f2a4f" d="M64.944 100.042c3.733.005 7.467.01 11.653.13-3.214.355-6.882.592-10.994.81-.444-.018-.596.155-.637-.152-.014-.5.013-.691.043-.848.002.036-.065.06-.065.06"/><path fill="#02041d" d="M65.395 105.946c-.266-.736-.312-1.472-.28-2.57.353.391.627 1.145.918 2.212.016.312-.42.357-.638.358"/><path fill="#5ba3f5" d="M46.615 61.035c.051 5.353-.282 10.692-.855 16.501a.87.87 0 0 1-.719.475c-.358-4.03-.716-8.059-1.1-12.55.746-1.786 1.518-3.113 2.674-4.426"/><path fill="#69a6de" d="M45.034 78.354c.007-.343.486-.349.725-.352 1.664.096 3.09.195 4.821.148.342.264.379.675.423 1.397-1.697.36-3.402.412-5.532.492-.431-.427-.438-.885-.437-1.685"/><path fill="#000304" d="M57.695 53.83c.358 3.876.325 7.56-.188 11.707-1.834.46-3.186.455-4.643.079-.41-2.102-.717-3.832-1.024-5.562.356-1.918.712-3.837 1.1-6.184 1.477-.363 2.92-.298 4.755-.04"/><path fill="#5ba3f5" d="M51.52 60.04c.627 1.744.933 3.474 1.12 5.64-.422.603-.566.86-.55 1.208-.015.182-.03.364-.058.82-.92-1.829-1.829-3.932-2.888-6.392.584-.667 1.319-.978 2.375-1.275"/><path fill="#02041d" d="M67.056 47.015c-2.394.383-4.688.7-7.383 1.04-.453-.135-.506-.296-.623-.702 1.646-.346 3.356-.446 5.837-.488 1.241-.007 1.712-.073 2.182-.138 0 0 .086.222-.013.288"/><path fill="#4c85bd" d="M66.899 46.542c-.3.25-.771.316-1.586.275.242-.224.828-.342 1.586-.275"/><path fill="#01020a" d="M51.964 88.47c1.708-.735 3.453-1.076 5.581-1.039.346 1.438.31 2.497-.04 3.62-1.97.363-3.624.662-5.279.96-.074-1.049-.15-2.098-.262-3.54"/><path fill="#02041d" d="M52.153 92.266c1.728-.553 3.382-.852 5.42-.831.386 1.088.387 1.857.382 2.59-.007-.036.048-.085.048-.085-1.682-.127-3.363-.254-5.466-.375-.434-.343-.446-.694-.384-1.3"/><path fill="#01050f" d="M64.903 94.05c.03 1.712.06 3.423.065 5.563-.024.43.043.405-.388.384-2.14.032-3.85.084-5.558.136 0 0-.451-.133-.686-.147-.272-1.737-.309-3.46-.34-5.615.007-.431-.048-.382.392-.368 2.466.025 4.49.036 6.515.048"/><path fill="#5681ac" d="M59.018 100.352c1.713-.271 3.422-.323 5.56-.39.4.177.374.369.275.844-.071.282-.467.231-1.08.212-1.996-.017-3.379-.013-4.762-.01 0 0 .003-.438.007-.656"/><path fill="#6aaeea" d="M59.008 101.254c1.386-.25 2.77-.253 4.566-.247.413.009.426.502.422.75-1.387.245-2.77.244-4.566.24-.413-.003-.426-.496-.422-.743"/><path fill="#0b2646" d="M74.814 66.54c-.5.315-1.227.424-2.32.569.454-.235 1.274-.505 2.32-.57"/><path fill="#02041d" d="M70.648 52.15c.19.208.059.484-.402.82-.16-.199-.022-.47.402-.82m.068-4.955c.238.059.152.455.081.646-.287.07-.47-.088-.709-.445-.089-.16.39-.26.628-.201"/><path fill="#4abdbf" d="M86.001 68.348c1.297.257 2.59.864 3.882 1.47-1.332.729-2.664 1.458-4.403 2.189-.099-1.102.209-2.206.521-3.659"/><path fill="#0b1c51" d="M71.993 87c5.04-.924 6.85 1.308 6.004 6.569-.01.44-.033.465-.452.455-1.778.034-3.137.079-4.793 0-.834-.772-1.371-1.422-1.85-2.439.39-1.762.721-3.157 1.051-4.553 0 0 .028-.02.04-.032"/><path fill="#78baf9" d="M70.843 91.951c.538.65 1.075 1.301 2.167 2.32 3.218.61 4.493 1.947 3.973 4.7-2.282.01-4.579-.137-6.843.066-3.21.288-4.583-.984-4.237-4.984-1.045-1.224-2.05-1.57-2.96-2.083-.981-.552-1.875-1.262-2.806-1.903 1.05-.688 2.02-1.607 3.17-2.007 1.472-.511 3.089-.605 4.643-.879.176-.038.352-.076.832.268.89 1.755 1.475 3.129 2.06 4.502"/><path fill="#88bef2" d="M67.504 87.113c-1.108.342-2.725.436-4.197.947-1.15.4-2.12 1.319-3.17 2.007.931.641 1.825 1.35 2.806 1.903.91.513 1.915.859 2.95 1.652-.107.38-.284.386-.726.41-2.289.007-4.313-.004-6.772.007-.435-.747-.436-1.516-.507-2.668-.033-1.443.003-2.502.064-3.959 3.052-.387 6.079-.377 9.552-.3m3.398 4.473c-.645-1.007-1.23-2.38-1.855-4.082.697-.386 1.432-.443 2.537-.485.039 1.41-.292 2.805-.682 4.567"/><path fill="#0b2646" d="M52.512 66.935c-.438-.395-.294-.652.233-.884 1.576-.06 2.928-.054 4.686-.06.459.157.512.325.601.753-1.675.254-3.386.247-5.52.191"/><path fill="#88bef2" d="M77.19 98.979c.313-2.761-.962-4.099-3.884-4.586 1.102-.29 2.46-.335 4.228-.356.41 1.396.41 2.768.343 4.546-.068.406-.481.403-.688.396"/></svg>